<?xml version="1.0" standalone="no"?>
<!DOCTYPE svg PUBLIC "-//W3C//DTD SVG 20010904//EN"
 "http://www.w3.org/TR/2001/REC-SVG-20010904/DTD/svg10.dtd">
<svg version="1.0" xmlns="http://www.w3.org/2000/svg"
 width="725.000000pt" height="725.000000pt" viewBox="0 0 725.000000 725.000000"
 preserveAspectRatio="xMidYMid meet">
<metadata>
Created by potrace 1.11, written by Peter Selinger 2001-2013
</metadata>
<g transform="translate(0.000000,725.000000) scale(0.100000,-0.100000)"
fill="#000000" stroke="none">
<path d="M0 3625 l0 -3625 3625 0 3625 0 0 3625 0 3625 -3625 0 -3625 0 0
-3625z m2875 1755 c134 -26 308 -84 433 -142 l93 -43 -84 -83 -84 -84 -69 30
c-92 40 -211 77 -336 103 -139 30 -446 33 -583 6 -329 -66 -599 -201 -824
-413 -482 -454 -642 -1114 -421 -1739 123 -348 382 -655 715 -850 148 -86 280
-139 462 -181 150 -35 427 -45 587 -19 1003 157 1618 1166 1296 2125 -18 52
-55 141 -83 198 l-51 103 74 74 c41 41 80 75 87 75 18 0 156 -286 193 -400
108 -334 117 -714 25 -1055 -139 -513 -487 -933 -970 -1171 -441 -217 -935
-250 -1399 -93 -288 98 -543 262 -754 484 -553 584 -660 1461 -267 2165 119
212 308 428 502 572 270 202 544 311 908 362 17 2 122 3 235 1 161 -2 228 -8
315 -25z m2360 0 c706 -141 1265 -668 1440 -1360 237 -934 -291 -1895 -1208
-2202 -444 -148 -937 -120 -1359 79 l-99 46 84 85 84 84 40 -20 c65 -33 239
-91 341 -113 126 -27 392 -37 529 -19 779 97 1381 746 1419 1530 23 459 -146
892 -475 1220 -192 191 -392 316 -637 398 -687 230 -1450 -34 -1859 -643 -59
-88 -156 -287 -188 -386 -83 -253 -103 -545 -56 -804 26 -144 105 -370 165
-473 15 -26 23 -50 19 -62 -3 -11 -38 -49 -78 -85 -83 -76 -71 -80 -142 50
-159 294 -234 655 -207 998 20 259 78 467 193 695 206 409 556 725 992 896 91
36 275 84 389 101 143 22 471 14 613 -15z m-2575 -1035 c0 -14 -1 -25 -2 -25
-2 0 -29 -4 -62 -10 -62 -10 -91 -29 -109 -70 -7 -16 -13 -223 -17 -580 -7
-603 -8 -607 -67 -730 -49 -100 -152 -179 -275 -212 -80 -20 -76 12 5 52 100
49 140 140 157 355 12 148 12 1024 1 1084 -12 62 -44 89 -119 102 -56 10 -62
14 -62 35 l0 24 275 0 275 0 0 -25z m2670 0 c0 -22 -5 -25 -49 -31 -61 -8
-108 -35 -121 -70 -6 -15 -10 -196 -10 -442 0 -445 -10 -660 -35 -757 -24 -94
-70 -179 -122 -225 -54 -47 -151 -96 -210 -106 -38 -6 -41 -5 -37 13 3 11 21
25 41 32 20 8 55 33 79 56 92 92 107 224 102 920 -3 442 -5 493 -20 522 -18
33 -47 46 -125 58 -37 6 -43 10 -43 31 l0 24 275 0 275 0 0 -25z m-1633 -423
c21 -26 10 -96 -21 -136 -14 -19 -26 -38 -26 -43 1 -4 36 -46 80 -93 l79 -84
20 44 c11 25 21 57 21 73 0 23 -5 29 -30 34 -16 3 -30 12 -30 19 0 11 21 14
95 14 78 0 95 -3 95 -15 0 -8 -8 -15 -18 -15 -33 0 -64 -32 -93 -97 -16 -36
-29 -73 -29 -83 0 -18 82 -100 100 -100 5 0 15 9 22 20 12 19 38 28 38 13 0
-14 -42 -77 -59 -90 -28 -22 -51 -14 -100 35 l-48 48 -39 -33 c-44 -39 -131
-68 -177 -59 -78 15 -127 75 -127 156 0 50 19 88 73 147 23 26 37 47 31 51
-22 15 -44 58 -44 88 0 93 136 170 187 106z"/>
<path d="M3593 3910 c-23 -9 -43 -39 -43 -64 0 -8 14 -32 32 -52 l32 -36 28
31 c36 40 38 93 6 115 -25 18 -25 18 -55 6z"/>
<path d="M3542 3656 c-17 -19 -33 -48 -37 -65 -9 -42 26 -114 69 -141 60 -36
152 -21 185 32 10 17 2 30 -76 113 -48 52 -92 95 -99 95 -7 0 -25 -15 -42 -34z"/>
</g>
</svg>
